<svg xmlns="http://www.w3.org/2000/svg" viewBox="0 0 100 100" width="100" height="100">
  <path d="M50 5C25.1 5 5 25.1 5 50s20.1 45 45 45 45-20.1 45-45-20.1-45-45-45zM50 85c-19.9 0-35-15.1-35-35S30.1 15 50 15s35 15.1 35 35-15.1 35-35 35z" fill="#34b7f1"/>
  <path d="M41.5 62c0-7.8 5.7-12.9 12.5-12.9s12.5 5.1 12.5 12.9-5.7 12.9-12.5 12.9-12.5-5.1-12.5-12.9z" fill="#fff"/>
  <path d="M50 18c-1.3 0-2.5.9-2.5 2.5v16.4c0 1.4 1.1 2.5 2.5 2.5s2.5-1.1 2.5-2.5V20.5c0-1.6-1.1-2.5-2.5-2.5z" fill="#34b7f1"/>
</svg>
