<svg width="100" height="100" viewBox="0 0 256 256" xmlns="http://www.w3.org/2000/svg">
  <defs>
    <linearGradient id="a" x1="66.69" y1="278.75" x2="169.91" y2="120.58" gradientUnits="userSpaceOnUse">
      <stop offset="0" stop-color="#ffa50e"/>
      <stop offset="1" stop-color="#f5820c"/>
    </linearGradient>
  </defs>
  <path d="M44.76 197.98L17.38 248.7c-3.29 6.05-.55 13.6 5.97 16.25l100.27 40.94c2.62 1.07 5.6.82 8.04-.66l100.92-59.37a8.64 8.64 0 003.89-9.76l-43.7-196.6c-1.67-7.52-11.04-9.95-15.64-3.88z" fill="url(#a)"/>
  <path d="M128 305.9L41.58 255.5 128 102.3z" fill="#ffa50e"/>
  <path d="M128 102.3L214.42 255.5 128 305.9z" fill="#f5820c"/>
  <path d="M128 102.3L41.58 255.5 3.9 234.18a8.67 8.67 0 01-3.9-9.76L75.58 15.1c2.85-7.55 13.5-7.55 16.36 0z" fill="#ffcc30"/>
  <path d="M128 102.3l-88.44 153.2L3.9 234.18a8.67 8.67 0 01-3.9-9.76L75.58 15.1c2.85-7.55 13.5-7.55 16.36 0z" fill="#ffcc30"/>
</svg>
