<svg width="20" height="20" viewBox="0 0 256 256" xmlns="http://www.w3.org/2000/svg">
  <path fill="#FF6D00" d="M79.5 171a36 36 0 1136-36 36 36 0 01-36 36zm0-48a12 12 0 1012 12 12 12 0 00-12-12zm97 96a36 36 0 1136-36 36 36 0 01-36 36zm0-48a12 12 0 1012 12 12 12 0 00-12-12zM197 83a36 36 0 1136-36 36 36 0 01-36 36zm0-48a12 12 0 1012 12 12 12 0 00-12-12zM44 71a8 8 0 018-8h49a8 8 0 010 16H52a8 8 0 01-8-8zm176 128a8 8 0 018 8v48a8 8 0 01-16 0v-48a8 8 0 018-8zm-54-72h38.6l-8.3-8.3a8 8 0 0111.3-11.3l22 22a8 8 0 010 11.3l-22 22a8 8 0 11-11.3-11.3l8.3-8.3H166a8 8 0 010-16zM44 191a8 8 0 018-8h49a8 8 0 010 16H52a8 8 0 01-8-8z"/>
</svg>
